<svg viewBox="0 0 64 64" fill="none" xmlns="http://www.w3.org/2000/svg">
  <rect width="64" height="64" rx="12" fill="#0a0a0a"/>
  <path d="M 36 9.5  A 23 23 0 0 1 54.5 28"   stroke="#4ade80" stroke-width="3.5" stroke-linecap="round"/>
  <path d="M 54.5 36 A 23 23 0 0 1 36 54.5"   stroke="#4ade80" stroke-width="3.5" stroke-linecap="round"/>
  <path d="M 28 54.5 A 23 23 0 0 1 9.5 36"    stroke="#4ade80" stroke-width="3.5" stroke-linecap="round"/>
  <path d="M 9.5 28  A 23 23 0 0 1 28 9.5"    stroke="#4ade80" stroke-width="3.5" stroke-linecap="round"/>
  <line x1="32" y1="3"  x2="32" y2="11" stroke="#4ade80" stroke-width="3" stroke-linecap="round"/>
  <line x1="32" y1="53" x2="32" y2="61" stroke="#4ade80" stroke-width="3" stroke-linecap="round"/>
  <line x1="3"  y1="32" x2="11" y2="32" stroke="#4ade80" stroke-width="3" stroke-linecap="round"/>
  <line x1="53" y1="32" x2="61" y2="32" stroke="#4ade80" stroke-width="3" stroke-linecap="round"/>
  <path d="M 38 13 L 22 32 L 30 32 L 25 51 L 42 30 L 34 30 Z" fill="#4ade80"/>
</svg>
